<svg width="25" height="27" viewBox="0 0 25 27" fill="none" xmlns="http://www.w3.org/2000/svg">
<path fill-rule="evenodd" clip-rule="evenodd" d="M21.0693 1.20757L23.6172 3.23641C23.8632 3.46797 24.002 3.79142 24 4.12931C23.9982 4.46718 23.856 4.78909 23.6074 5.01794L21.6713 7.33476L15.0837 15.1914C14.9683 15.3234 14.8149 15.4161 14.6444 15.4566L11.2278 16.2311C10.7795 16.2535 10.3892 15.9277 10.3313 15.4827V11.9717C10.3429 11.8023 10.411 11.6419 10.5249 11.5161L16.9905 4.20608L19.2097 1.55574C19.6487 0.980247 20.4517 0.829899 21.0693 1.20757Z" stroke="black" stroke-width="2" stroke-linecap="round" stroke-linejoin="round"/>
<path d="M11.8493 5.26053C12.5231 5.26053 13.0695 4.71422 13.0695 4.0403C13.0695 3.36639 12.5231 2.82007 11.8493 2.82007V5.26053ZM7.29374 4.0403V2.82007H7.29081L7.29374 4.0403ZM1.22025 10.1415H2.44048V10.1388L1.22025 10.1415ZM1.22025 19.2933L2.44048 19.2959V19.2933H1.22025ZM7.29374 25.3944L7.29081 26.6147H7.29374V25.3944ZM16.4048 25.3944V26.6147H16.4077L16.4048 25.3944ZM22.4783 19.2933H21.258V19.2959L22.4783 19.2933ZM23.6985 13.1921C23.6985 12.5181 23.1522 11.9719 22.4783 11.9719C21.8044 11.9719 21.258 12.5181 21.258 13.1921H23.6985ZM18.1185 3.74063C17.8613 3.11771 17.1478 2.82119 16.5249 3.07835C15.9019 3.33551 15.6055 4.04896 15.8627 4.67187L18.1185 3.74063ZM21.9347 8.51988C22.5927 8.37443 23.0082 7.72307 22.8627 7.06504C22.7173 6.40701 22.066 5.99148 21.4079 6.13695L21.9347 8.51988ZM5.77578 19.5991C5.10187 19.5991 4.55555 20.1453 4.55555 20.8194C4.55555 21.4933 5.10187 22.0396 5.77578 22.0396V19.5991ZM17.9244 22.0396C18.5983 22.0396 19.1446 21.4933 19.1446 20.8194C19.1446 20.1453 18.5983 19.5991 17.9244 19.5991V22.0396ZM11.8493 2.82007H7.29374V5.26053H11.8493V2.82007ZM7.29081 2.82007C3.25527 2.82977 -0.00862212 6.10853 1.7111e-05 10.1441L2.44048 10.1388C2.43472 7.45088 4.60871 5.26699 7.29667 5.26053L7.29081 2.82007ZM1.7111e-05 10.1415V19.2933H2.44048V10.1415H1.7111e-05ZM1.7111e-05 19.2905C-0.00862212 23.326 3.25527 26.6049 7.29081 26.6147L7.29667 24.1742C4.60871 24.1677 2.43472 21.9838 2.44048 19.2959L1.7111e-05 19.2905ZM7.29374 26.6147H16.4048V24.1742H7.29374V26.6147ZM16.4077 26.6147C20.4433 26.6049 23.7071 23.326 23.6985 19.2905L21.258 19.2959C21.2637 21.9838 19.0898 24.1677 16.4019 24.1742L16.4077 26.6147ZM23.6985 19.2933V13.1921H21.258V19.2933H23.6985ZM15.8627 4.67187C16.1798 5.44002 16.8267 6.52876 17.7936 7.37C18.7824 8.23052 20.2036 8.90256 21.9347 8.51988L21.4079 6.13695C20.6514 6.30418 19.9941 6.04968 19.3955 5.5289C18.7748 4.98883 18.3253 4.24152 18.1185 3.74063L15.8627 4.67187ZM5.77578 22.0396H17.9244V19.5991H5.77578V22.0396Z" fill="black"/>
</svg>
