<svg width="19" height="14" viewBox="0 0 19 14" fill="none" xmlns="http://www.w3.org/2000/svg">
<path d="M0.962645 0.23291H17.8067C18.3362 0.23291 18.7693 0.679593 18.7693 1.22555V12.1448C18.7693 12.6908 18.3362 13.1375 17.8067 13.1375H0.962608C0.43326 13.1375 6.48499e-05 12.6908 6.48499e-05 12.1448V1.22555C0.000101089 0.679593 0.433222 0.23291 0.962645 0.23291ZM1.32384 0.977356L8.831 6.78449C8.96598 6.89043 9.17317 6.9567 9.38473 6.95572C9.59625 6.9567 9.80341 6.89043 9.93842 6.78449L17.4456 0.977356H1.32384ZM5.33392 7.16766L1.24319 12.3792C1.23909 12.3844 1.23406 12.3883 1.2297 12.3931H17.5397C17.5354 12.3881 17.5303 12.3844 17.5262 12.3792L13.4355 7.16766C13.3101 7.00785 13.3339 6.77357 13.4891 6.644C13.6441 6.51474 13.8713 6.53924 13.9966 6.69909L18.0474 11.8597V1.44268L10.3713 7.38002C10.0828 7.60164 9.73174 7.69918 9.38477 7.70016C9.03827 7.69941 8.68693 7.60187 8.39821 7.38002L0.722128 1.44268V11.8596L4.77279 6.69909C4.89816 6.53928 5.12556 6.51471 5.28029 6.644C5.4355 6.77326 5.45933 7.00785 5.33392 7.16766Z" fill="#5B605C"/>
</svg>

