<svg width="24" height="24" viewBox="0 0 24 24" fill="none" xmlns="http://www.w3.org/2000/svg">
<path d="M7.5 0.375H16.5C16.9971 0.375558 17.4737 0.573282 17.8252 0.924791C18.1767 1.2763 18.3744 1.75289 18.375 2.25V21.75C18.3744 22.2471 18.1767 22.7237 17.8252 23.0752C17.4737 23.4267 16.9971 23.6244 16.5 23.625H7.5C7.00289 23.6244 6.5263 23.4267 6.17479 23.0752C5.82328 22.7237 5.62556 22.2471 5.625 21.75V2.25C5.62556 1.75289 5.82328 1.2763 6.17479 0.924791C6.5263 0.573282 7.00289 0.375558 7.5 0.375ZM9.45741 1.125L9.68241 2.25H14.3175L14.5425 1.125H9.45741ZM6.375 21.75C6.37533 22.0483 6.49397 22.3342 6.70487 22.5451C6.91578 22.756 7.20173 22.8747 7.5 22.875H16.5C16.7983 22.8747 17.0842 22.756 17.2951 22.5451C17.506 22.3342 17.6247 22.0483 17.625 21.75V2.25C17.6247 1.95173 17.506 1.66578 17.2951 1.45487C17.0842 1.24397 16.7983 1.12533 16.5 1.125H15.3075L14.9927 2.69855C14.9757 2.78356 14.9298 2.86005 14.8628 2.91501C14.7957 2.96997 14.7117 3 14.625 3H9.375C9.28831 3 9.20429 2.96997 9.13725 2.91501C9.0702 2.86005 9.02427 2.78356 9.00727 2.69855L8.69255 1.125H7.5C7.20173 1.12533 6.91578 1.24397 6.70487 1.45487C6.49397 1.66578 6.37533 1.95173 6.375 2.25V21.75Z" fill="#5B605C"/>
<path d="M14.25 21.375H16.5C16.5995 21.375 16.6948 21.4145 16.7652 21.4848C16.8355 21.5552 16.875 21.6505 16.875 21.75C16.875 21.8495 16.8355 21.9448 16.7652 22.0152C16.6948 22.0855 16.5995 22.125 16.5 22.125H14.25C14.1505 22.125 14.0552 22.0855 13.9848 22.0152C13.9145 21.9448 13.875 21.8495 13.875 21.75C13.875 21.6505 13.9145 21.5552 13.9848 21.4848C14.0552 21.4145 14.1505 21.375 14.25 21.375Z" fill="#5B605C"/>
<path d="M12.75 21.375H13.125C13.2245 21.375 13.3198 21.4145 13.3902 21.4848C13.4605 21.5552 13.5 21.6505 13.5 21.75C13.5 21.8495 13.4605 21.9448 13.3902 22.0152C13.3198 22.0855 13.2245 22.125 13.125 22.125H12.75C12.6505 22.125 12.5552 22.0855 12.4848 22.0152C12.4145 21.9448 12.375 21.8495 12.375 21.75C12.375 21.6505 12.4145 21.5552 12.4848 21.4848C12.5552 21.4145 12.6505 21.375 12.75 21.375Z" fill="#5B605C"/>
</svg>

