<svg width="32" height="30" viewBox="0 0 32 30" fill="none" xmlns="http://www.w3.org/2000/svg">
<path d="M22.4081 25.4816H9.45941C4.27992 25.4816 2.98505 24.2884 2.98505 19.5154V9.96949C2.98505 5.19654 4.27992 4.0033 9.45941 4.0033H22.4081C27.5876 4.0033 28.8825 5.19654 28.8825 9.96949V19.5154C28.8825 24.2884 27.5876 25.4816 22.4081 25.4816Z" stroke="black" stroke-width="1.75" stroke-linecap="round" stroke-linejoin="round"/>
<path d="M18.5236 9.96951H24.9979" stroke="black" stroke-width="1.75" stroke-linecap="round" stroke-linejoin="round"/>
<path d="M19.8184 14.7425H24.9979" stroke="black" stroke-width="1.75" stroke-linecap="round" stroke-linejoin="round"/>
<path d="M22.4081 19.5154H24.9979" stroke="black" stroke-width="1.75" stroke-linecap="round" stroke-linejoin="round"/>
<path d="M11.4023 13.8951C12.6967 13.8951 13.746 12.9282 13.746 11.7354C13.746 10.5426 12.6967 9.57562 11.4023 9.57562C10.1079 9.57562 9.05859 10.5426 9.05859 11.7354C9.05859 12.9282 10.1079 13.8951 11.4023 13.8951Z" stroke="black" stroke-width="1.75" stroke-linecap="round" stroke-linejoin="round"/>
<path d="M15.9338 19.9089C15.7525 18.1787 14.2634 16.8184 12.3858 16.6633C11.7384 16.6036 11.078 16.6036 10.4176 16.6633C8.54007 16.8303 7.05097 18.1787 6.86969 19.9089" stroke="black" stroke-width="1.75" stroke-linecap="round" stroke-linejoin="round"/>
</svg>
