<svg width="27" height="26" viewBox="0 0 27 26" fill="none" xmlns="http://www.w3.org/2000/svg">
<path fill-rule="evenodd" clip-rule="evenodd" d="M9.6588 8.4067L12.6 4.97468V17.3316C12.6 17.8117 13.0023 18.2 13.5 18.2C13.9977 18.2 14.4 17.8117 14.4 17.3316V4.94178L17.3691 8.4067C17.721 8.74903 18.2934 8.74903 18.6471 8.4067C18.999 8.0661 18.999 7.51228 18.6471 7.17081L14.1984 1.97864C14.0094 1.79664 13.7601 1.71861 13.5144 1.73161C13.2678 1.71861 13.0185 1.79664 12.8304 1.97864L8.38169 7.17081C8.02889 7.51228 8.02889 8.0661 8.38169 8.4067C8.73449 8.74903 9.3069 8.74903 9.6588 8.4067ZM26.1 15.6C25.6023 15.6 25.2 15.9883 25.2 16.4667V22.5334H1.8V16.4667C1.8 15.9883 1.3977 15.6 0.9 15.6C0.4023 15.6 0 15.9883 0 16.4667V23.4C0 23.8793 0.4023 24.2667 0.9 24.2667H26.1C26.5977 24.2667 27 23.8793 27 23.4V16.4667C27 15.9883 26.5977 15.6 26.1 15.6Z" fill="black"/>
</svg>

